<?xml version="1.0" standalone="no"?>
<!DOCTYPE svg PUBLIC "-//W3C//DTD SVG 20010904//EN"
 "http://www.w3.org/TR/2001/REC-SVG-20010904/DTD/svg10.dtd">
<svg version="1.0" xmlns="http://www.w3.org/2000/svg"
 width="576.000000pt" height="576.000000pt" viewBox="0 0 576.000000 576.000000"
 preserveAspectRatio="xMidYMid meet">
<metadata>
Created by potrace 1.14, written by Peter Selinger 2001-2017
</metadata>
<g transform="translate(0.000000,576.000000) scale(0.100000,-0.100000)"
fill="#000000" stroke="none">
<path d="M705 5682 c-2 -2 -29 -6 -61 -8 -32 -2 -81 -11 -109 -20 -64 -21
-175 -75 -175 -86 0 -4 -6 -8 -13 -8 -21 0 -141 -132 -179 -195 -33 -58 -68
-145 -68 -171 0 -15 34 -32 155 -75 50 -17 117 -42 150 -54 147 -54 451 -167
465 -172 8 -4 17 -7 20 -8 3 -1 16 -6 30 -12 38 -16 144 -55 155 -57 6 -2 24
-9 40 -15 17 -7 55 -22 85 -33 100 -36 165 -60 185 -68 11 -5 72 -27 135 -50
63 -23 124 -46 135 -50 11 -5 58 -23 105 -40 47 -17 94 -35 105 -39 11 -5 45
-18 75 -29 30 -11 116 -43 191 -71 75 -28 138 -51 141 -51 3 0 23 -8 44 -17
22 -9 41 -17 44 -18 6 -1 48 -16 295 -109 110 -41 324 -120 475 -176 151 -56
284 -105 295 -110 21 -8 152 -58 245 -92 30 -11 64 -24 75 -28 11 -5 133 -50
270 -100 312 -115 417 -155 480 -181 11 -4 54 -20 95 -35 131 -47 149 -53 354
-130 335 -125 358 -135 383 -173 23 -34 23 -35 23 -420 0 -365 -1 -388 -20
-418 -31 -51 -62 -67 -124 -60 -30 3 -62 10 -72 16 -19 11 -91 38 -224 86 -41
15 -84 30 -95 35 -11 4 -47 18 -80 30 -33 12 -87 32 -120 45 -105 41 -550 207
-560 209 -5 1 -14 4 -20 7 -5 4 -28 12 -50 19 -22 7 -53 18 -70 25 -70 29
-138 55 -146 55 -5 0 -28 8 -52 19 -23 10 -80 32 -127 49 -101 36 -568 210
-590 219 -8 3 -17 7 -20 8 -6 1 -120 43 -140 52 -8 3 -19 7 -25 9 -5 1 -35 12
-65 24 -30 12 -68 26 -85 31 -16 5 -39 13 -50 18 -11 6 -83 33 -160 61 -144
53 -285 105 -320 120 -11 5 -126 47 -255 95 -129 47 -251 92 -270 99 -19 8
-60 23 -90 35 -30 11 -182 67 -337 125 -310 116 -363 136 -378 139 -5 2 -21 9
-35 17 -14 7 -25 12 -25 11 0 -1 -9 1 -20 5 -41 14 -183 67 -260 95 -44 17
-102 39 -130 49 -27 10 -59 22 -70 26 -11 4 -22 8 -25 9 -3 1 -12 5 -20 8 -39
16 -126 47 -132 47 -5 0 -8 -151 -8 -335 l0 -335 22 -10 c53 -21 163 -63 173
-65 5 -1 24 -8 40 -14 17 -7 35 -14 40 -15 6 -1 27 -10 49 -19 21 -9 42 -17
46 -17 4 0 29 -9 56 -20 27 -11 112 -42 189 -70 77 -28 150 -55 163 -61 40
-17 66 -27 102 -39 19 -7 44 -16 55 -20 30 -13 119 -45 125 -45 3 -1 16 -7 30
-15 14 -7 25 -12 25 -11 0 4 71 -22 210 -75 33 -12 184 -68 335 -124 151 -56
289 -107 305 -113 17 -7 32 -12 35 -12 3 0 15 -6 28 -13 12 -7 22 -10 22 -6 0
3 6 2 13 -4 6 -5 32 -17 57 -25 25 -9 88 -32 140 -51 396 -146 538 -198 558
-207 52 -22 73 -30 182 -69 134 -49 266 -98 295 -110 11 -5 52 -20 90 -33 39
-14 81 -30 95 -35 14 -6 149 -56 300 -112 151 -56 282 -104 290 -107 8 -4 17
-7 20 -8 3 -1 14 -5 25 -10 11 -4 56 -21 100 -37 44 -16 94 -35 110 -41 17 -7
32 -12 35 -12 3 -1 22 -9 44 -18 21 -9 41 -17 45 -17 3 0 40 -13 81 -29 41
-16 127 -48 190 -71 63 -23 129 -48 145 -54 17 -7 100 -39 186 -70 116 -42
164 -65 185 -87 l29 -30 3 -437 c2 -240 0 -450 -3 -467 -3 -16 -15 -41 -28
-56 -21 -24 -83 -59 -105 -59 -5 0 -43 -13 -83 -29 -76 -30 -526 -200 -544
-205 -5 -2 -19 -6 -30 -10 -11 -5 -61 -23 -110 -42 -50 -19 -94 -34 -98 -34
-4 0 -26 -9 -50 -20 -41 -19 -82 -34 -180 -67 -26 -9 -45 -18 -42 -21 4 -4
119 -4 330 -1 6 0 107 0 225 0 118 0 229 0 245 0 17 0 53 -1 80 -1 238 -6 394
49 537 192 60 60 86 96 117 160 77 158 71 -45 68 2463 -2 1238 -5 2261 -8
2275 -3 14 -12 43 -19 65 -8 22 -14 42 -15 45 -4 27 -82 147 -128 197 -100
106 -249 183 -388 199 -52 5 -373 9 -394 4 -5 -1 -14 -1 -20 0 -14 3 -448 3
-460 0 -5 -1 -14 -1 -20 0 -14 3 -448 3 -460 0 -5 -1 -14 -1 -20 0 -14 3 -448
3 -460 0 -5 -1 -14 -1 -20 0 -14 3 -448 3 -460 0 -5 -1 -14 -1 -20 0 -14 3
-448 3 -460 0 -5 -1 -14 -1 -20 0 -14 3 -448 3 -460 0 -5 -1 -14 -1 -20 0 -14
3 -448 3 -460 0 -5 -1 -14 -1 -20 0 -14 3 -448 3 -460 0 -5 -1 -12 -2 -15 -1
-10 4 -161 6 -165 3z"/>
<path d="M83 1414 c3 -796 7 -872 37 -909 7 -8 9 -15 6 -15 -4 0 10 -33 31
-72 54 -104 164 -212 271 -266 45 -23 82 -39 82 -36 0 2 8 0 18 -5 9 -5 31
-11 47 -14 17 -3 40 -8 52 -11 19 -4 169 40 753 220 172 53 393 121 500 154
52 16 160 49 240 73 80 25 192 59 250 77 58 17 121 37 140 43 19 6 37 12 40
12 3 1 46 14 95 29 50 16 95 29 100 31 6 1 17 5 25 8 8 3 60 19 115 36 185 55
310 93 325 98 8 3 20 7 25 8 6 2 63 19 126 39 143 45 180 78 174 157 -5 60
-51 111 -113 124 -10 2 -69 20 -132 40 -63 20 -119 37 -125 39 -5 1 -29 8 -52
15 -23 6 -70 21 -105 32 -35 11 -72 22 -83 25 -11 2 -31 8 -45 13 -32 12 -261
84 -278 87 -14 3 -147 44 -279 86 -51 16 -98 31 -105 32 -15 3 -147 43 -303
93 -60 19 -114 36 -120 37 -5 2 -30 9 -55 16 -25 7 -49 15 -55 16 -5 2 -91 28
-190 59 -99 31 -184 58 -190 59 -8 2 -82 24 -105 31 -3 1 -12 4 -20 8 -17 7
-186 57 -197 59 -5 0 -33 9 -63 20 -30 11 -62 21 -71 23 -9 2 -49 14 -90 26
-41 13 -76 23 -79 24 -3 1 -12 4 -20 8 -8 3 -78 24 -155 47 -77 23 -147 44
-155 47 -8 3 -19 7 -25 8 -13 3 -216 66 -233 73 -10 4 -12 -148 -9 -804z"/>
</g>
</svg>
